# xmcd CD database file
#
# Track frame offsets:
#	150
#	9400
#	25250
#	41889
#	62718
#	75995
#	88835
#	104398
#	127341
#	138740
#	159223
#	177613
#	188906
#	206120
#
# Disc length: 2986 seconds
#
# Revision: 0
# Processed by: cddbd v1.4PL0 Copyright (c) Steve Scherf et al.
# Submitted via: CDex 1.50
#
DISCID=c60ba80e
DTITLE=Nick Trill - Juggling the Blues
DYEAR=1999
DGENRE=Blues
TTITLE0=You Better Hold Me
TTITLE1=Cut That Out
TTITLE2=Nick's Worried Blues
TTITLE3=BlackJack
TTITLE4=Jump Up Baby
TTITLE5=Striking On You Baby
TTITLE6=All Aboard
TTITLE7=Apologize
TTITLE8=Quiet Whiskey
TTITLE9=Prison Blues
TTITLE10=How Many More Years
TTITLE11=Who's That Knocking At Your Door
TTITLE12=Women Drive Me Crazy
TTITLE13=South Florida Bound
EXTD=YEAR: 1999
EXTT0=
EXTT1=
EXTT2=
EXTT3=
EXTT4=
EXTT5=
EXTT6=
EXTT7=
EXTT8=
EXTT9=
EXTT10=
EXTT11=
EXTT12=
EXTT13=
PLAYORDER=
